# Blender 3.4.1
# www.blender.org
mtllib castle2.mtl
o Cone
v 0.011340 4.860046 -0.879094
v 0.877365 4.860046 -0.379094
v 0.877365 4.860046 0.620906
v 0.011340 4.860046 1.120906
v -0.854686 4.860046 0.620906
v -0.854686 4.860046 -0.379094
v 0.011340 6.860046 0.120906
v 0.011340 4.435783 -0.651225
v 0.680025 4.435783 -0.265159
v 0.680025 4.435783 0.506971
v 0.011340 4.435783 0.893037
v -0.657345 4.435783 0.506971
v -0.657345 4.435783 -0.265159
v 0.011340 4.435783 -0.879094
v 0.877365 4.435783 -0.379094
v 0.877365 4.435783 0.620906
v 0.011340 4.435783 1.120906
v -0.854686 4.435783 0.620906
v -0.854686 4.435783 -0.379094
v 0.011340 1.963289 -0.651225
v 0.680025 1.963289 -0.265159
v 0.680025 1.963289 0.506971
v 0.011340 1.963289 0.893037
v -0.657345 1.963289 0.506971
v -0.657345 1.963289 -0.265159
v 0.011340 -0.013972 -1.007783
v 0.988813 -0.013972 -0.443438
v 0.988813 -0.013972 0.685250
v 0.011340 -0.013972 1.249595
v -0.966133 -0.013972 0.685250
v -0.966133 -0.013972 -0.443438
vn 0.4588 0.3974 -0.7947
vn 0.9177 0.3974 -0.0000
vn 0.4588 0.3974 0.7947
vn -0.4588 0.3974 0.7947
vn -0.5000 -0.0000 -0.8660
vn -0.9177 0.3974 -0.0000
vn -0.4588 0.3974 -0.7947
vn 0.5000 -0.0000 -0.8660
vn -1.0000 -0.0000 -0.0000
vn -0.5000 -0.0000 0.8660
vn 0.5000 -0.0000 0.8660
vn 1.0000 -0.0000 -0.0000
vn -0.0000 -1.0000 -0.0000
vn -0.9880 0.1543 -0.0000
vn 0.4940 0.1543 0.8557
vn 0.4940 0.1543 -0.8557
vn -0.4940 0.1543 -0.8557
vn -0.4940 0.1543 0.8557
vn 0.9880 0.1543 -0.0000
vt 0.250000 0.490000
vt 0.457846 0.370000
vt 0.457846 0.130000
vt 0.250000 0.010000
vt 0.042154 0.130000
vt 0.042154 0.370000
vt 0.250000 0.250000
vt 0.750000 0.435311
vt 0.910484 0.342656
vt 0.910484 0.157344
vt 0.750000 0.064689
vt 0.589516 0.157344
vt 0.589516 0.342656
vt 0.250000 0.490000
vt 0.750000 0.490000
vt 0.457846 0.370000
vt 0.957846 0.370000
vt 0.457846 0.130000
vt 0.957846 0.130000
vt 0.250000 0.010000
vt 0.750000 0.010000
vt 0.042154 0.130000
vt 0.542154 0.130000
vt 0.042154 0.370000
vt 0.542154 0.370000
vt 0.750000 0.435311
vt 0.910484 0.342656
vt 0.910484 0.157344
vt 0.750000 0.064689
vt 0.589516 0.157344
vt 0.589516 0.342656
vt 0.750000 0.435311
vt 0.910484 0.342656
vt 0.910484 0.157344
vt 0.750000 0.064689
vt 0.589516 0.157344
vt 0.589516 0.342656
s 0
f 1/1/1 7/7/1 2/2/1
f 2/2/2 7/7/2 3/3/2
f 3/3/3 7/7/3 4/4/3
f 4/4/4 7/7/4 5/5/4
f 1/1/5 19/24/5 6/6/5
f 5/5/6 7/7/6 6/6/6
f 6/6/7 7/7/7 1/1/7
f 8/8/5 25/31/5 13/13/5
f 2/2/8 14/14/8 1/1/8
f 6/6/9 18/22/9 5/5/9
f 5/5/10 17/20/10 4/4/10
f 4/4/11 16/18/11 3/3/11
f 3/3/12 15/16/12 2/2/12
f 8/8/13 15/17/13 9/9/13
f 9/9/13 16/19/13 10/10/13
f 11/11/13 16/19/13 17/21/13
f 11/11/13 18/23/13 12/12/13
f 12/12/13 19/25/13 13/13/13
f 8/8/13 19/25/13 14/15/13
f 25/31/14 30/36/14 24/30/14
f 11/11/10 24/30/10 23/29/10
f 10/10/12 21/27/12 9/9/12
f 13/13/9 24/30/9 12/12/9
f 10/10/11 23/29/11 22/28/11
f 8/8/8 21/27/8 20/26/8
f 27/33/13 29/35/13 31/37/13
f 23/29/15 28/34/15 22/28/15
f 21/27/16 26/32/16 20/26/16
f 20/26/17 31/37/17 25/31/17
f 24/30/18 29/35/18 23/29/18
f 22/28/19 27/33/19 21/27/19
f 1/1/5 14/14/5 19/24/5
f 8/8/5 20/26/5 25/31/5
f 2/2/8 15/16/8 14/14/8
f 6/6/9 19/24/9 18/22/9
f 5/5/10 18/22/10 17/20/10
f 4/4/11 17/20/11 16/18/11
f 3/3/12 16/18/12 15/16/12
f 8/8/13 14/15/13 15/17/13
f 9/9/13 15/17/13 16/19/13
f 11/11/13 10/10/13 16/19/13
f 11/11/13 17/21/13 18/23/13
f 12/12/13 18/23/13 19/25/13
f 8/8/13 13/13/13 19/25/13
f 25/31/14 31/37/14 30/36/14
f 11/11/10 12/12/10 24/30/10
f 10/10/12 22/28/12 21/27/12
f 13/13/9 25/31/9 24/30/9
f 10/10/11 11/11/11 23/29/11
f 8/8/8 9/9/8 21/27/8
f 31/37/13 26/32/13 27/33/13
f 27/33/13 28/34/13 29/35/13
f 29/35/13 30/36/13 31/37/13
f 23/29/15 29/35/15 28/34/15
f 21/27/16 27/33/16 26/32/16
f 20/26/17 26/32/17 31/37/17
f 24/30/18 30/36/18 29/35/18
f 22/28/19 28/34/19 27/33/19
o Cube
v 0.016762 0.007066 1.000000
v 0.405112 2.007066 0.611650
v 0.016762 0.007066 -1.000000
v 0.405112 2.007066 -0.749117
v 3.603233 0.007066 1.000000
v 3.050184 2.007066 0.611650
v 2.480332 0.007066 -2.110966
v 2.257498 2.007066 -1.584466
v 0.016762 2.007066 1.000000
v 0.016762 2.007066 -1.000000
v 2.480332 2.007066 -2.110966
v 3.603233 2.007066 1.000000
v 0.405112 0.665644 0.611650
v 0.405112 0.665644 -0.749117
v 2.257498 0.665644 -1.584466
v 3.050184 0.665644 0.611650
vn -1.0000 -0.0000 -0.0000
vn -0.4111 -0.0000 -0.9116
vn 0.9406 -0.0000 -0.3395
vn -0.0000 -0.0000 1.0000
vn -0.0000 -1.0000 -0.0000
vn -0.0000 -0.0000 -1.0000
vn -0.0000 1.0000 -0.0000
vn 0.4111 -0.0000 0.9116
vn -0.9406 -0.0000 0.3395
vn 1.0000 -0.0000 -0.0000
vt 0.375000 0.000000
vt 0.125000 0.750000
vt 0.375000 1.000000
vt 0.845399 0.705946
vt 0.375000 0.250000
vt 0.125000 0.500000
vt 0.840347 0.544813
vt 0.375000 0.750000
vt 0.654953 0.716711
vt 0.375000 0.500000
vt 0.659119 0.532838
vt 0.625000 0.000000
vt 0.625000 1.000000
vt 0.875000 0.750000
vt 0.625000 0.250000
vt 0.875000 0.500000
vt 0.625000 0.500000
vt 0.625000 0.750000
vt 0.845399 0.705946
vt 0.840347 0.544813
vt 0.659119 0.532838
vt 0.654953 0.716711
s 0
f 40/49/20 34/42/20 32/38/20
f 41/52/21 38/47/21 34/42/21
f 42/54/22 36/45/22 38/47/22
f 43/55/23 32/40/23 36/45/23
f 34/43/24 36/45/24 32/39/24
f 37/46/25 44/56/25 33/41/25
f 33/41/26 41/53/26 40/51/26
f 39/48/26 41/53/26 35/44/26
f 37/46/26 42/54/26 39/48/26
f 37/46/26 40/51/26 43/55/26
f 45/57/26 47/59/26 46/58/26
f 35/44/27 46/58/27 39/48/27
f 39/48/28 47/59/28 37/46/28
f 33/41/29 45/57/29 35/44/29
f 40/49/20 41/52/20 34/42/20
f 41/52/21 42/54/21 38/47/21
f 42/54/22 43/55/22 36/45/22
f 43/55/23 40/50/23 32/40/23
f 34/43/24 38/47/24 36/45/24
f 37/46/25 47/59/25 44/56/25
f 33/41/26 35/44/26 41/53/26
f 39/48/26 42/54/26 41/53/26
f 37/46/26 43/55/26 42/54/26
f 37/46/26 33/41/26 40/51/26
f 45/57/26 44/56/26 47/59/26
f 35/44/27 45/57/27 46/58/27
f 39/48/28 46/58/28 47/59/28
f 33/41/29 44/56/29 45/57/29
