<svg width="90" height="92" viewBox="0 0 90 92" fill="none" xmlns="http://www.w3.org/2000/svg">
<g clip-path="url(#clip0_18_47)">
<path d="M57.2955 85.3977C55.0038 85.3977 52.9678 85.0047 51.1875 84.2188C49.4167 83.4233 48.0246 82.3295 47.0114 80.9375C45.9981 79.5455 45.4867 77.9451 45.4773 76.1364H53.4318C53.4413 76.6951 53.6117 77.197 53.9432 77.642C54.2841 78.0777 54.7481 78.4186 55.3352 78.6648C55.9223 78.911 56.5947 79.0341 57.3523 79.0341C58.0814 79.0341 58.7254 78.9062 59.2841 78.6506C59.8428 78.3854 60.2784 78.0208 60.5909 77.5568C60.9034 77.0928 61.0549 76.5625 61.0455 75.9659C61.0549 75.3788 60.875 74.858 60.5057 74.4034C60.1458 73.9489 59.6392 73.5937 58.9858 73.3381C58.3324 73.0824 57.5795 72.9545 56.7273 72.9545H53.7727V67.5H56.7273C57.5133 67.5 58.2045 67.3722 58.8011 67.1165C59.4072 66.8608 59.8759 66.5057 60.2074 66.0511C60.5483 65.5966 60.714 65.0758 60.7045 64.4886C60.714 63.9205 60.5767 63.4186 60.2926 62.983C60.0085 62.5473 59.6108 62.2064 59.0994 61.9602C58.5975 61.714 58.0152 61.5909 57.3523 61.5909C56.6326 61.5909 55.9886 61.7187 55.4205 61.9744C54.8617 62.2301 54.4214 62.5852 54.0994 63.0398C53.7775 63.4943 53.6117 64.0152 53.6023 64.6023H46.0455C46.0549 62.822 46.5426 61.25 47.5085 59.8864C48.4839 58.5227 49.8191 57.4527 51.5142 56.6761C53.2093 55.8996 55.1553 55.5114 57.3523 55.5114C59.5019 55.5114 61.4006 55.8759 63.0483 56.6051C64.7055 57.3343 65.9981 58.3381 66.9261 59.6165C67.8636 60.8854 68.3277 62.339 68.3182 63.9773C68.3371 65.6061 67.7784 66.9413 66.642 67.983C65.5152 69.0246 64.0852 69.6402 62.3523 69.8295V70.0568C64.7008 70.3125 66.4669 71.0322 67.6506 72.2159C68.8343 73.3902 69.4167 74.8674 69.3977 76.6477C69.4072 78.3523 68.8958 79.8627 67.8636 81.179C66.8409 82.4953 65.4157 83.5275 63.5881 84.2756C61.7699 85.0237 59.6723 85.3977 57.2955 85.3977Z" fill="white"/>
<path d="M21.5167 67.2958L55 18.6197L39.4833 6L6 54.6761M21.5167 67.2958L6 54.6761M21.5167 67.2958L7.225 70L6 54.6761" stroke="white" stroke-width="5"/>
</g>
<defs>
<clipPath id="clip0_18_47">
<rect width="90" height="92" fill="white"/>
</clipPath>
</defs>
</svg>
