<svg width="73" height="92" viewBox="0 0 73 92" fill="none" xmlns="http://www.w3.org/2000/svg">
<g clip-path="url(#clip0_14_6)">
<path d="M45.9318 85V79.3182L56.7841 70.3409C57.5038 69.7443 58.1193 69.1856 58.6307 68.6648C59.1515 68.1345 59.5492 67.59 59.8239 67.0312C60.108 66.4725 60.25 65.8523 60.25 65.1705C60.25 64.4223 60.089 63.7831 59.767 63.2528C59.4545 62.7225 59.0189 62.3153 58.4602 62.0312C57.9015 61.7377 57.2576 61.5909 56.5284 61.5909C55.7992 61.5909 55.1553 61.7377 54.5966 62.0312C54.0473 62.3248 53.6212 62.7557 53.3182 63.3239C53.0152 63.892 52.8636 64.5833 52.8636 65.3977H45.3636C45.3636 63.3523 45.8229 61.5909 46.7415 60.1136C47.66 58.6364 48.9574 57.5 50.6335 56.7045C52.3097 55.9091 54.2746 55.5114 56.5284 55.5114C58.858 55.5114 60.875 55.8854 62.5795 56.6335C64.2936 57.3722 65.6146 58.4138 66.5426 59.7585C67.4801 61.1032 67.9489 62.6799 67.9489 64.4886C67.9489 65.6061 67.7169 66.7187 67.2528 67.8267C66.7888 68.9252 65.9555 70.142 64.7528 71.4773C63.5502 72.8125 61.8409 74.4034 59.625 76.25L56.8977 78.5227V78.6932H68.2614V85H45.9318Z" fill="white"/>
<path d="M21.5167 67.2958L55 18.6197L39.4833 6L6 54.6761M21.5167 67.2958L6 54.6761M21.5167 67.2958L7.225 70L6 54.6761" stroke="white" stroke-width="5"/>
</g>
<defs>
<clipPath id="clip0_14_6">
<rect width="73" height="92" fill="white"/>
</clipPath>
</defs>
</svg>
